#!OML:ASF F:\VICON\USERDATA\INSTALL\rory3\rory3.ASF
:FULLY-SPECIFIED
:DEGREES
1334
root -0.233618 15.4629 -2.05761 -1.15952 -2.9877 2.16164
lowerback 23.0264 0.439117 -1.99314
upperback 8.29871 -0.0499334 -2.95229
thorax -3.74521 -0.0155729 -2.02734
lowerneck -7.37692 -5.9194 -14.8886
upperneck 11.3191 -7.55705 11.0098
head 5.60876 -3.66787 5.34881
rclavicle -4.37326e-015 1.11319e-014
rhumerus 45.9655 16.2904 -6.15059
rradius 124.08
rwrist -79.3078
rhand -13.8552 10.4286
rfingers 7.12502
rthumb 12.2687 -19.1915
lclavicle -4.37326e-015 1.11319e-014
lhumerus 37.4806 1.91691 20.354
lradius 47.6331
lwrist 58.0262
lhand -3.66023 20.1655
lfingers 7.12502
lthumb 22.0802 48.9248
rfemur -23.4208 7.13811 15.1432
rtibia 43.266
rfoot -14.5818 -5.88196
rtoes -9.30967
lfemur -18.3892 0.307858 -15.7322
ltibia 34.9499
lfoot -10.192 -0.465482
ltoes -12.8585
1335
root -0.234998 15.4622 -2.06367 -1.16641 -2.93628 2.07969
lowerback 23.0864 0.390306 -1.98317
upperback 8.31787 -0.112741 -2.96041
thorax -3.75571 -0.0461046 -2.02629
lowerneck -7.37554 -5.79157 -14.8699
upperneck 11.4636 -7.38548 10.9466
head 5.62678 -3.58843 5.34239
rclavicle -4.37326e-015 -2.46493e-014
rhumerus 46.0805 15.923 -5.54465
rradius 125.154
rwrist -79.6422
rhand -13.5335 10.1605
rfingers 7.12502
rthumb 12.5789 -19.4408
lclavicle -4.37326e-015 -2.46493e-014
lhumerus 37.3459 1.36366 19.9393
lradius 47.8275
lwrist 58.5934
lhand -3.91424 20.2012
lfingers 7.12502
lthumb 21.8363 48.9891
rfemur -23.4249 7.18049 15.2489
rtibia 43.2686
rfoot -14.5141 -6.02311
rtoes -9.97887
lfemur -18.4336 0.305536 -15.6336
ltibia 34.9824
lfoot -10.1952 -0.50055
ltoes -13.3005
1336
root -0.236717 15.4605 -2.07157 -1.1578 -2.86759 1.99876
lowerback 23.1456 0.343945 -1.97228
upperback 8.34583 -0.171299 -2.96192
thorax -3.75608 -0.0745806 -2.01958
lowerneck -7.46908 -5.70004 -14.993
upperneck 11.6574 -7.25202 11.0072
head 5.69166 -3.52404 5.39472
rclavicle 1.03368e-014 2.22639e-014
rhumerus 46.2631 15.5244 -4.93581
rradius 126.139
rwrist -80.1096
rhand -13.934 9.73343
rfingers 7.12502
rthumb 12.1927 -19.8912
lclavicle 1.03368e-014 2.22639e-014
lhumerus 37.2236 0.766069 19.478
lradius 48.0832
lwrist 59.1351
lhand -4.29684 20.2951
lfingers 7.12502
lthumb 21.4689 49.1255
rfemur -23.4471 7.23696 15.3429
rtibia 43.2557
rfoot -14.468 -6.15579
rtoes -10.2266
lfemur -18.5305 0.301272 -15.5293
ltibia 35.0559
lfoot -10.1964 -0.606361
ltoes -13.139
1337
root -0.235083 15.459 -2.07817 -1.19848 -2.81437 1.87675
lowerback 23.1664 0.319428 -1.80838
upperback 8.43878 -0.168929 -3.03189
thorax -3.66585 -0.0702764 -2.18914
lowerneck -7.49416 -5.66755 -14.8565
upperneck 11.7298 -7.22743 11.0169
head 5.70992 -3.50542 5.37802
rclavicle -7.95139e-016 -2.70347e-014
rhumerus 46.2149 15.0466 -4.4179
rradius 127.072
rwrist -80.6919
rhand -14.7381 9.63555
rfingers 7.12502
rthumb 11.4173 -20.0336
lclavicle -7.95139e-016 -2.70347e-014
lhumerus 37.2985 0.160525 18.9743
lradius 48.3925
lwrist 59.6367
lhand -4.79296 20.4793
lfingers 7.12502
lthumb 20.9923 49.3632
rfemur -23.3973 7.2872 15.4733
rtibia 43.2285
rfoot -14.4228 -6.25121
rtoes -10.1588
lfemur -18.5623 0.255586 -15.3963
ltibia 35.1376
lfoot -10.1992 -0.639321
ltoes -12.8317
1338
root -0.232722 15.456 -2.08253 -1.26971 -2.8238 1.83309
lowerback 23.2606 0.36462 -1.63277
upperback 8.48792 -0.0828551 -3.17488
thorax -3.65699 -0.0233609 -2.46724
lowerneck -7.38059 -5.65487 -14.4519
upperneck 11.7755 -7.26866 10.9339
head 5.69113 -3.51636 5.28324
rclavicle -5.1684e-015 2.06736e-014
rhumerus 45.8089 14.6953 -3.97048
rradius 128.11
rwrist -81.3701
rhand -15.7355 9.4734
rfingers 7.12502
rthumb 10.4553 -20.2466
lclavicle -5.1684e-015 2.06736e-014
lhumerus 37.6059 -0.418221 18.6661
lradius 48.5357
lwrist 59.8424
lhand -5.0692 20.6185
lfingers 7.12502
lthumb 20.7269 49.5316
rfemur -23.3346 7.37049 15.52
rtibia 43.2203
rfoot -14.3941 -6.3728
rtoes -10.3961
lfemur -18.5309 0.239246 -15.3543
ltibia 35.1949
lfoot -10.2459 -0.666022
ltoes -12.8808
1339
root -0.229581 15.4564 -2.08639 -1.29657 -2.7707 1.87121
lowerback 23.3385 0.374611 -1.57809
upperback 8.50427 -0.0657792 -3.27462
thorax -3.6771 -0.0124722 -2.61194
lowerneck -7.40771 -5.6027 -14.2646
upperneck 11.9757 -7.23239 10.9484
head 5.74602 -3.48999 5.26177
rclavicle -7.55382e-015 1.11319e-014
rhumerus 45.5391 14.4698 -3.41165
rradius 129.083
rwrist -81.9764
rhand -16.4321 9.18591
rfingers 7.12502
rthumb 9.78328 -20.5668
lclavicle -7.55382e-015 1.11319e-014
lhumerus 37.9114 -0.950381 18.4145
lradius 48.3665
lwrist 60.0352
lhand -5.15778 20.5772
lfingers 7.12502
lthumb 20.6418 49.4996
rfemur -23.2953 7.35521 15.4548
rtibia 43.2019
rfoot -14.4399 -6.34016
rtoes -10.1688
lfemur -18.5388 0.217153 -15.4185
ltibia 35.2198
lfoot -10.2839 -0.71116
ltoes -13.297
1340
root -0.227027 15.4577 -2.09201 -1.2377 -2.62493 1.87988
lowerback 23.3069 0.301855 -1.5442
upperback 8.5134 -0.150678 -3.29051
thorax -3.65461 -0.053066 -2.62614
lowerneck -7.53085 -5.52472 -14.4253
upperneck 12.2468 -7.12682 11.0944
head 5.84848 -3.43501 5.3463
rclavicle 9.14409e-015 6.36111e-015
rhumerus 45.4348 14.2249 -2.74024
rradius 129.815
rwrist -82.3254
rhand -16.3396 9.17106
rfingers 7.12502
rthumb 9.87256 -20.5775
lclavicle 9.14409e-015 6.36111e-015
lhumerus 38.0624 -1.51352 18.0026
lradius 48.1312
lwrist 60.4774
lhand -5.31307 20.4811
lfingers 7.12502
lthumb 20.4926 49.4196
rfemur -23.3642 7.28637 15.4113
rtibia 43.189
rfoot -14.4337 -6.37368
rtoes -10.1873
lfemur -18.6614 0.122739 -15.4487
ltibia 35.2303
lfoot -10.3026 -0.74305
ltoes -13.4043
1341
root -0.225693 15.4611 -2.09677 -1.23448 -2.55136 1.81173
lowerback 23.2958 0.237473 -1.50216
upperback 8.54845 -0.220446 -3.25425
thorax -3.61361 -0.0870606 -2.59254
lowerneck -7.63308 -5.43311 -14.552
upperneck 12.4565 -6.99177 11.1444
head 5.91957 -3.37047 5.39671
rclavicle -5.56597e-015 -1.90833e-014
rhumerus 45.3806 13.9232 -2.12033
rradius 130.38
rwrist -82.5958
rhand -16.0615 8.99555
rfingers 7.12502
rthumb 10.1409 -20.7401
lclavicle -5.56597e-015 -1.90833e-014
lhumerus 38.0626 -1.9588 17.7437
lradius 47.9895
lwrist 60.6846
lhand -5.47452 20.5458
lfingers 7.12502
lthumb 20.3374 49.5009
rfemur -23.3756 7.35269 15.4626
rtibia 43.1704
rfoot -14.4016 -6.45697
rtoes -9.83856
lfemur -18.7051 0.116032 -15.3862
ltibia 35.2427
lfoot -10.27 -0.755277
ltoes -13.3804
1342
root -0.223619 15.4603 -2.10156 -1.25512 -2.50184 1.69879
lowerback 23.3086 0.176769 -1.39917
upperback 8.59946 -0.272754 -3.21675
thorax -3.56673 -0.111626 -2.59722
lowerneck -7.75126 -5.34934 -14.5018
upperneck 12.6317 -6.86523 11.0513
head 5.97242 -3.31023 5.3691
rclavicle -3.18055e-015 -7.95139e-015
rhumerus 45.3577 13.7022 -1.51042
rradius 130.823
rwrist -82.7447
rhand -16.2554 8.98329
rfingers 7.12502
rthumb 9.95376 -20.7614
lclavicle -3.18055e-015 -7.95139e-015
lhumerus 38.0559 -2.33277 17.5851
lradius 47.9261
lwrist 60.7143
lhand -5.62262 20.6961
lfingers 7.12502
lthumb 20.1951 49.6663
rfemur -23.3386 7.3868 15.584
rtibia 43.1681
rfoot -14.4139 -6.57746
rtoes -10.2157
lfemur -18.7266 0.140245 -15.2719
ltibia 35.2607
lfoot -10.2286 -0.82217
ltoes -13.2171
1343
root -0.222334 15.4552 -2.10715 -1.22989 -2.45318 1.73228
lowerback 23.2769 0.149299 -1.46167
upperback 8.63521 -0.318345 -3.2055
thorax -3.51326 -0.134862 -2.53704
lowerneck -7.82267 -5.27199 -14.4852
upperneck 12.7684 -6.75599 11.0204
head 6.01093 -3.25728 5.36675
rclavicle -3.18055e-015 -2.38542e-015
rhumerus 45.336 13.5427 -0.907721
rradius 131.17
rwrist -82.6659
rhand -16.3885 9.12533
rfingers 7.12502
rthumb 9.8254 -20.6254
lclavicle -3.18055e-015 -2.38542e-015
lhumerus 38.059 -2.70179 17.4295
lradius 47.8986
lwrist 60.8099
lhand -5.8381 20.8717
lfingers 7.12502
lthumb 19.988 49.8637
rfemur -23.3809 7.39899 15.5414
rtibia 43.172
rfoot -14.3997 -6.707
rtoes -10.7766
lfemur -18.7998 0.130625 -15.3109
ltibia 35.2726
lfoot -10.1706 -0.867108
ltoes -13.092
